<?xml version="1.0" encoding="UTF-8" standalone="no"?> <svg width="64" height="64" viewBox="0 0 64 64" fill="none" xmlns="http://www.w3.org/2000/svg">
<path d="M34 27.605C33.9999 31.1953 33.7032 34.7795 33.113 38.321C33.0379 38.7728 33.0001 39.23 33 39.688V39.688C32.9999 40.7796 33.2148 41.8605 33.6324 42.869C34.0501 43.8775 34.6624 44.7939 35.4342 45.5658C36.2061 46.3376 37.1225 46.9499 38.131 47.3676C39.1395 47.7852 40.2204 48.0001 41.312 48H50.688C51.7796 48.0001 52.8605 47.7852 53.869 47.3676C54.8775 46.9499 55.7939 46.3376 56.5658 45.5658C57.3376 44.7939 57.9499 43.8775 58.3676 42.869C58.7852 41.8605 59.0001 40.7796 59 39.688V39.688C58.9999 39.23 58.9621 38.7728 58.887 38.321C58.2968 34.7795 58.0001 31.1953 58 27.605V26.4C58.0001 22.8097 58.2968 19.2255 58.887 15.684V15.684C58.9624 15.2306 59.0002 14.7717 59 14.312C59.0001 13.2204 58.7852 12.1395 58.3676 11.131C57.9499 10.1225 57.3376 9.2061 56.5658 8.43424C55.7939 7.66237 54.8775 7.05012 53.869 6.63245C52.8605 6.21478 51.7796 5.99987 50.688 6H41.312C40.2204 5.99987 39.1395 6.21478 38.131 6.63245C37.1225 7.05012 36.2061 7.66237 35.4342 8.43424C34.6624 9.2061 34.0501 10.1225 33.6324 11.131C33.2148 12.1395 32.9999 13.2204 33 14.312V14.312C33.0001 14.77 33.0379 15.2272 33.113 15.679V15.679C33.7035 19.2221 34.0002 22.808 34 26.4V27.605Z" fill="#E9353F"/>
<path d="M58.887 15.679C59.0854 14.4882 59.022 13.2685 58.7013 12.1047C58.3807 10.9409 57.8104 9.86093 57.0301 8.93982C56.2498 8.0187 55.2783 7.27857 54.1831 6.77089C53.0878 6.2632 51.8952 6.00015 50.688 6H41.312C40.786 6.00115 40.2614 6.05205 39.745 6.152C38.709 7.08429 37.9247 8.2627 37.4647 9.57831C37.0047 10.8939 36.8837 12.3043 37.113 13.679C37.7035 17.2221 38.0002 20.808 38 24.4V25.61C37.9999 29.2003 37.7032 32.7845 37.113 36.326C36.9154 37.5164 36.9794 38.7355 37.3005 39.8987C37.6215 41.0619 38.1919 42.1413 38.9721 43.0618C39.7523 43.9823 40.7235 44.722 41.8184 45.2294C42.9132 45.7368 44.1053 45.9997 45.312 46H54.688C55.214 45.9988 55.7386 45.948 56.255 45.848C57.291 44.9157 58.0753 43.7373 58.5353 42.4217C58.9953 41.1061 59.1163 39.6957 58.887 38.321C58.2968 34.7795 58.0001 31.1953 58 27.605V26.4C57.9998 22.808 58.2965 19.2221 58.887 15.679V15.679Z" fill="#FF4B50"/>
<path d="M58.887 15.679C59.0854 14.4882 59.022 13.2685 58.7013 12.1047C58.3807 10.9409 57.8104 9.86093 57.0301 8.93982C56.2498 8.0187 55.2783 7.27857 54.1831 6.77089C53.0878 6.2632 51.8952 6.00015 50.688 6H41.312C40.1047 6 38.912 6.26295 37.8166 6.77057C36.7213 7.27819 35.7496 8.0183 34.9692 8.93944C34.1889 9.86057 33.6185 10.9406 33.2977 12.1045C32.977 13.2684 32.9136 14.4881 33.112 15.679C33.351 17.112 33.529 18.554 33.671 19.999H58.328C58.47 18.555 58.648 17.112 58.887 15.679Z" fill="#CBCBCB"/>
<path d="M50.688 6H41.312C40.786 6.00115 40.2614 6.05205 39.745 6.152C38.709 7.08429 37.9247 8.2627 37.4647 9.57831C37.0047 10.8939 36.8837 12.3043 37.113 13.679C37.462 15.773 37.696 17.879 37.839 19.999H58.328C58.47 18.554 58.648 17.111 58.887 15.678C59.0852 14.4873 59.0217 13.2677 58.701 12.104C58.3802 10.9404 57.8099 9.86049 57.0297 8.93949C56.2494 8.01849 55.2779 7.27846 54.1828 6.77083C53.0876 6.26321 51.8951 6.00017 50.688 6V6Z" fill="#E5E5E5"/>
<path d="M23.957 12.942L24.32 11.72L24.872 9.512C24.957 9.17187 25 8.8226 25 8.472V8.472C25 7.81638 24.7396 7.18762 24.276 6.72403C23.8124 6.26044 23.1836 6 22.528 6V6C22.1856 6.00015 21.847 6.07133 21.5336 6.20903C21.2202 6.34673 20.9387 6.54796 20.707 6.8L20.007 7.554L8.2 13.4L25.156 23.993L23.957 12.942Z" fill="#E9A570"/>
<path d="M17.947 11.873L18.965 11.991C19.025 11.997 19.085 12 19.146 12C19.6377 12 20.1093 11.8047 20.457 11.457C20.8047 11.1093 21 10.6377 21 10.146V8C21 7.46957 20.7893 6.96086 20.4142 6.58579C20.0391 6.21071 19.5304 6 19 6H17.828C16.5673 5.99976 15.3312 6.34902 14.257 7.009L17.947 11.873Z" fill="#E9A570"/>
<path d="M9.06801 9.615L9.33601 9.226C9.89843 8.53088 10.6091 7.97025 11.4161 7.58511C12.223 7.19998 13.1059 7.00006 14 7V7C14.621 7 15.2334 7.14458 15.7889 7.42229C16.3443 7.7 16.8274 8.10322 17.2 8.6L18.121 9.828C18.6917 10.5887 19.0002 11.514 19 12.465V12.465C19 12.8721 18.8383 13.2625 18.5504 13.5504C18.2625 13.8383 17.8721 14 17.465 14V14C17.1618 13.9999 16.8653 13.9102 16.613 13.742L14.9 12.6L14.337 12.334L9.06801 9.615Z" fill="#E9A570"/>
<path d="M18.121 9.828L17.2 8.6C16.8274 8.10322 16.3443 7.7 15.7889 7.42229C15.2334 7.14458 14.621 7 14 7C12.8257 7.00261 11.6782 7.35036 10.7 8H12C12.7949 7.99885 13.5672 8.26421 14.1935 8.75366C14.8198 9.24312 15.264 9.92841 15.455 10.7L15.917 12.546C15.9724 12.7667 16.0003 12.9934 16 13.221C16 13.258 15.991 13.292 15.989 13.328L16.613 13.744C16.8443 13.8983 17.1132 13.987 17.3909 14.0004C17.6687 14.0138 17.9449 13.9515 18.19 13.8202C18.4351 13.6888 18.6399 13.4934 18.7826 13.2547C18.9252 13.016 19.0004 12.7431 19 12.465C19.0001 11.514 18.6917 10.5887 18.121 9.828V9.828Z" fill="#FCC287"/>
<path d="M27.559 16.039C26.5362 15.3585 25.7089 14.4226 25.159 13.324L24.509 12.024C24.3213 11.6522 24.0138 11.3544 23.6361 11.1787C23.2584 11.0029 22.8326 10.9595 22.4272 11.0554C22.0219 11.1513 21.6606 11.3809 21.4017 11.7072C21.1428 12.0335 21.0013 12.4375 21 12.854C21 15.5665 21.7373 18.2281 23.133 20.554L24 22L13.09 14.986C13.133 14.986 13.175 14.999 13.218 14.999C13.4519 14.9991 13.6835 14.9532 13.8996 14.8638C14.1158 14.7744 14.3122 14.6434 14.4777 14.4781C14.6431 14.3128 14.7744 14.1165 14.8641 13.9005C14.9537 13.6845 14.9999 13.4529 15 13.219C14.9998 13.0734 14.982 12.9283 14.947 12.787L14.485 10.94C14.3463 10.3859 14.0265 9.89402 13.5762 9.54253C13.126 9.19103 12.5712 9.00008 12 9H10.7C9.71238 9.00036 8.75439 9.33741 7.9841 9.95553C7.21382 10.5736 6.67727 11.4359 6.46301 12.4L5.23801 17.928C4.94911 19.2294 4.92293 20.5754 5.16101 21.887L7.00001 32L5.00001 63H22L21 33L26.034 27.966C26.6737 27.326 27.2062 26.5872 27.611 25.778C27.8688 25.2622 28.0482 24.7108 28.143 24.142L28.956 19.264C28.9851 19.0882 28.9999 18.9102 29 18.732C29 18.1992 28.8685 17.6746 28.6171 17.2049C28.3657 16.7351 28.0023 16.3346 27.559 16.039V16.039Z" fill="#E9A570"/>
<path d="M28.143 24.142L28.956 19.264C28.9851 19.0882 28.9999 18.9102 29 18.732C29 18.1992 28.8685 17.6746 28.6171 17.2049C28.3657 16.7351 28.0023 16.3346 27.559 16.039C26.5362 15.3585 25.7089 14.4226 25.159 13.324L24.509 12.024C24.3213 11.6522 24.0138 11.3544 23.6361 11.1787C23.2584 11.0029 22.8326 10.9595 22.4272 11.0554C22.0219 11.1513 21.6606 11.3809 21.4017 11.7072C21.1428 12.0335 21.0013 12.4375 21 12.854C21.0002 15.4252 21.6625 17.953 22.923 20.194C22.992 20.315 13.091 14.987 13.091 14.987C13.134 14.987 13.176 15 13.219 15C13.6914 15 14.1444 14.8124 14.4784 14.4784C14.8124 14.1444 15 13.6914 15 13.219C14.9998 13.0734 14.982 12.9283 14.947 12.787L14.485 10.94C14.3463 10.3859 14.0265 9.89402 13.5762 9.54253C13.126 9.19103 12.5712 9.00008 12 9H10.7C10.2336 8.99986 9.77032 9.07516 9.32801 9.223C9.14968 9.28249 8.97532 9.3533 8.80601 9.435C8.65402 9.74167 8.53889 10.0653 8.46301 10.399L7.23801 15.928C6.94911 17.2294 6.92293 18.5754 7.16101 19.887L9.00001 30L7.74701 49.42C7.65131 50.9043 7.86097 52.3924 8.36303 53.7925C8.86508 55.1926 9.64888 56.4748 10.666 57.5601C11.6831 58.6453 12.9119 59.5105 14.2766 60.1022C15.6412 60.6938 17.1126 60.9994 18.6 61H21.929L21 33L23 31L26.034 27.966C26.6737 27.326 27.2062 26.5872 27.611 25.778C27.8688 25.2622 28.0482 24.7108 28.143 24.142V24.142Z" fill="#FCC287"/>
<path d="M54 12H38V24H54V12Z" fill="#62C1EA"/>
<path d="M54 12H40V22H54V12Z" fill="#86DDFA"/>
<path d="M42 6C42 4.93913 42.4214 3.92172 43.1716 3.17157C43.9217 2.42143 44.9391 2 46 2V2C47.0609 2 48.0783 2.42143 48.8284 3.17157C49.5786 3.92172 50 4.93913 50 6" fill="#CBCBCB"/>
<path d="M43 48V52H49V48" fill="#CBCBCB"/>
<path d="M16 40H12C10.8954 40 10 40.8954 10 42C10 43.1046 10.8954 44 12 44H16C17.1046 44 18 43.1046 18 42C18 40.8954 17.1046 40 16 40Z" fill="#62C1EA"/>
<path d="M40 59H20C18.1441 58.9979 16.3649 58.2597 15.0526 56.9474C13.7403 55.6351 13.0021 53.8559 13 52V44H15V52C15.0016 53.3256 15.5289 54.5964 16.4662 55.5338C17.4036 56.4711 18.6744 56.9984 20 57H40C41.3256 56.9984 42.5964 56.4711 43.5338 55.5338C44.4711 54.5964 44.9984 53.3256 45 52H47C46.9979 53.8559 46.2597 55.6351 44.9474 56.9474C43.6351 58.2597 41.8559 58.9979 40 59Z" fill="#FF797B"/>
<path d="M19 6H17.828C17.1288 6.00348 16.4343 6.11479 15.769 6.33C16.6555 6.66466 17.4291 7.2437 18 8L18.921 9.228C19.4816 9.98523 19.8352 10.8755 19.947 11.811C20.2617 11.661 20.5275 11.4251 20.7139 11.1305C20.9002 10.8359 20.9994 10.4946 21 10.146V8C21 7.46957 20.7893 6.96086 20.4142 6.58579C20.0391 6.21071 19.5304 6 19 6V6Z" fill="#FCC287"/>
<path d="M22 10.145C22.4372 9.99587 22.9054 9.96142 23.3597 10.0449C23.8141 10.1284 24.2394 10.3271 24.595 10.622L24.872 9.512C24.9571 9.17187 25 8.8226 25 8.472C25 7.81638 24.7396 7.18762 24.276 6.72403C23.8124 6.26044 23.1836 6 22.528 6V6C22.1489 6.00247 21.7756 6.09248 21.437 6.263C21.8021 6.7687 21.999 7.37631 22 8V10.145Z" fill="#FCC287"/>
<path d="M22.93 20.19C22.2284 21.0876 21.3271 21.809 20.2976 22.2968C19.2681 22.7847 18.1389 23.0254 17 23C13.13 23 10 20.31 10 17C10.0036 15.9127 10.3385 14.8522 10.96 13.96L11.14 14.14C11.6921 14.6909 12.4401 15.0002 13.22 15C13.6918 14.9989 14.1439 14.8111 14.4775 14.4775C14.8111 14.1439 14.9989 13.6918 15 13.22C14.9988 13.0753 14.982 12.9311 14.95 12.79L14.9 12.6L16.61 13.74C16.8414 13.8952 17.1107 13.9845 17.389 13.9983C17.6673 14.0121 17.9441 13.9499 18.1897 13.8183C18.4353 13.6868 18.6405 13.4909 18.7833 13.2516C18.926 13.0123 19.0009 12.7386 19 12.46C19 12.3029 18.9899 12.1459 18.97 11.99C19.0296 11.9986 19.0898 12.0019 19.15 12C19.5277 12.0039 19.8963 11.8845 20.2 11.66C20.5267 11.8041 20.8411 11.9747 21.14 12.17C21.0477 12.3848 21 12.6162 21 12.85C21.0003 15.4221 21.6651 17.9504 22.93 20.19V20.19Z" fill="#E9353F"/>
<path d="M21.534 21.557L21.173 20.957C20.4047 19.6777 19.9992 18.2133 20 16.721C19.9998 16.4484 19.9349 16.1797 19.8106 15.9371C19.6863 15.6944 19.5062 15.4848 19.2851 15.3253C19.0639 15.1659 18.8081 15.0612 18.5386 15.02C18.2691 14.9787 17.9937 15.002 17.735 15.088C15.9235 15.692 14.0265 16 12.117 16H10.108C10.0396 16.329 10.0034 16.664 10 17C10 20.31 13.13 23 17 23C18.6262 23.0122 20.214 22.5069 21.534 21.557Z" fill="#FF4B50"/>
<path d="M48 51H49V48H44.141C44.3609 48.857 44.8592 49.6167 45.5577 50.1597C46.2562 50.7027 47.1153 50.9983 48 51V51Z" fill="#E5E5E5"/>
<path d="M16 40H12C11.717 40.001 11.4374 40.0624 11.18 40.18C11.041 40.4841 10.9808 40.8183 11.0049 41.1518C11.0291 41.4852 11.1368 41.8073 11.3181 42.0882C11.4994 42.3691 11.7485 42.5999 12.0424 42.7592C12.3363 42.9186 12.6657 43.0014 13 43H17C17.283 42.999 17.5626 42.9376 17.82 42.82C17.959 42.5159 18.0192 42.1817 17.9951 41.8482C17.9709 41.5148 17.8633 41.1927 17.6819 40.9118C17.5006 40.6309 17.2515 40.4001 16.9576 40.2408C16.6637 40.0814 16.3343 39.9986 16 40V40Z" fill="#86DDFA"/>
<path d="M5.994 32.058L4 62.936L6 63.064L8 32.064C8.00502 31.9827 7.99998 31.9011 7.985 31.821L6.145 21.708C5.93043 20.5276 5.95423 19.3161 6.215 18.145L7.443 12.617C7.60725 11.8754 8.01947 11.2119 8.6116 10.7361C9.20374 10.2603 9.9404 10.0007 10.7 10H12C12.3485 9.99968 12.6871 10.116 12.9618 10.3304C13.2365 10.5447 13.4316 10.8449 13.516 11.183L13.977 13.028C13.9922 13.0905 13.9999 13.1547 14 13.219C13.9997 13.4261 13.9174 13.6246 13.771 13.771C13.6246 13.9174 13.4261 13.9997 13.219 14C12.704 13.9985 12.2103 13.7941 11.845 13.431L10.707 12.293L9.293 13.707L9.712 14.126C9.24852 15.0134 9.00438 15.9989 9 17C9 20.86 12.589 24 17 24C19.115 24.021 21.1626 23.2571 22.747 21.856L23.147 22.516L24.861 21.486L23.993 20.041C22.6899 17.8701 22.0011 15.386 22 12.854C21.9999 12.6616 22.0648 12.4747 22.1842 12.3238C22.3036 12.1729 22.4705 12.0667 22.6578 12.0225C22.8451 11.9782 23.0418 11.9986 23.2161 12.0802C23.3904 12.1618 23.532 12.2998 23.618 12.472L24.268 13.772C24.8943 15.0246 25.8358 16.0926 27 16.871C27.3074 17.0745 27.5596 17.351 27.7341 17.6757C27.9086 18.0004 28 18.3633 28 18.732C28 18.8553 27.99 18.9784 27.97 19.1L27.156 23.978C27.0777 24.4483 26.9297 24.9043 26.717 25.331C26.3603 26.0442 25.8909 26.6952 25.327 27.259L20.293 32.293C20.1963 32.3898 20.1205 32.5054 20.0703 32.6327C20.02 32.76 19.9965 32.8962 20.001 33.033L20.8 57H20C18.6744 56.9984 17.4036 56.4711 16.4662 55.5338C15.5289 54.5964 15.0016 53.3256 15 52V45H16C16.7957 45 17.5587 44.6839 18.1213 44.1213C18.6839 43.5587 19 42.7956 19 42C19 41.2044 18.6839 40.4413 18.1213 39.8787C17.5587 39.3161 16.7957 39 16 39H12C11.2044 39 10.4413 39.3161 9.87868 39.8787C9.31607 40.4413 9 41.2044 9 42C9 42.7956 9.31607 43.5587 9.87868 44.1213C10.4413 44.6839 11.2044 45 12 45H13V52C13.0021 53.8559 13.7403 55.6351 15.0526 56.9474C16.3649 58.2597 18.1441 58.9979 20 59H20.867L21 63.033L23 62.967L22.867 59H40C41.6819 58.998 43.3068 58.3906 44.5775 57.2888C45.8482 56.187 46.6797 54.6646 46.92 53H49C49.2652 53 49.5196 52.8946 49.7071 52.7071C49.8946 52.5196 50 52.2652 50 52V49H50.688C52.0405 49.0003 53.3768 48.7059 54.604 48.1373C55.8312 47.5687 56.9197 46.7396 57.7939 45.7076C58.6681 44.6756 59.307 43.4655 59.666 42.1615C60.0251 40.8576 60.0957 39.491 59.873 38.157C59.2932 34.6696 59.0012 31.1403 59 27.605V26.4C59.0012 22.8647 59.2932 19.3354 59.873 15.848C60.0939 14.5316 60.0289 13.1831 59.6823 11.8941C59.3357 10.6051 58.7157 9.40585 57.8645 8.37775C57.0132 7.34966 55.9506 6.51685 54.7489 5.93591C53.5472 5.35498 52.2345 5.03953 50.9 5.011C50.6705 3.88071 50.0573 2.86453 49.1643 2.13462C48.2712 1.40472 47.1534 1.00599 46 1.00599C44.8466 1.00599 43.7288 1.40472 42.8357 2.13462C41.9427 2.86453 41.3295 3.88071 41.1 5.011C39.766 5.03964 38.4538 5.35498 37.2525 5.93562C36.0512 6.51625 34.9889 7.34859 34.1377 8.37611C33.2865 9.40363 32.6664 10.6023 32.3195 11.8907C31.9725 13.179 31.9069 14.527 32.127 15.843C32.7071 19.3321 32.9991 22.863 33 26.4V27.61C32.9988 31.1453 32.7069 34.6746 32.127 38.162C31.9051 39.4957 31.9763 40.8617 32.3358 42.165C32.6952 43.4684 33.3342 44.6778 34.2083 45.7092C35.0824 46.7406 36.1707 47.5693 37.3974 48.1376C38.6242 48.7059 39.96 49.0002 41.312 49H42V52C42 52.2652 42.1054 52.5196 42.2929 52.7071C42.4804 52.8946 42.7348 53 43 53H44.9C44.6679 54.1286 44.0538 55.1427 43.1613 55.8713C42.2687 56.5999 41.1522 56.9985 40 57H22.8L22.014 33.4L26.741 28.673C27.4572 27.9572 28.0531 27.1306 28.506 26.225C28.8087 25.6202 29.0188 24.9733 29.129 24.306L29.942 19.429C29.9805 19.1976 29.9999 18.9635 30 18.729C30.0007 18.0314 29.8288 17.3444 29.4995 16.7293C29.1703 16.1143 28.6939 15.5903 28.113 15.204C27.2367 14.6194 26.528 13.8163 26.057 12.874L25.407 11.574C25.407 11.566 25.396 11.56 25.392 11.552L25.843 9.752C25.947 9.33327 25.9997 8.90345 26 8.472C26.005 7.85171 25.8425 7.24157 25.5298 6.70588C25.217 6.17019 24.7656 5.72879 24.2229 5.4282C23.6803 5.12761 23.0667 4.97897 22.4467 4.99795C21.8266 5.01692 21.2232 5.2028 20.7 5.536C20.2012 5.18825 19.6081 5.00123 19 5H17.828C16.4968 5.00395 15.1887 5.34818 14.028 6H14C13.0064 5.99913 12.0241 6.21119 11.1194 6.62191C10.2146 7.03262 9.40841 7.63245 8.755 8.381C7.94262 8.70085 7.22058 9.21418 6.6516 9.8764C6.08261 10.5386 5.68387 11.3297 5.49 12.181L4.262 17.711C3.94367 19.1425 3.91511 20.6233 4.178 22.066L5.994 32.058ZM11 42C11 41.7348 11.1054 41.4804 11.2929 41.2929C11.4804 41.1054 11.7348 41 12 41H16C16.2652 41 16.5196 41.1054 16.7071 41.2929C16.8946 41.4804 17 41.7348 17 42C17 42.2652 16.8946 42.5196 16.7071 42.7071C16.5196 42.8946 16.2652 43 16 43H12C11.7348 43 11.4804 42.8946 11.2929 42.7071C11.1054 42.5196 11 42.2652 11 42ZM46 3C46.6183 3.00256 47.2206 3.19609 47.7247 3.55409C48.2288 3.91209 48.6099 4.41709 48.816 5H43.184C43.3901 4.41709 43.7712 3.91209 44.2753 3.55409C44.7794 3.19609 45.3817 3.00256 46 3V3ZM41.312 7H50.688C51.7501 6.99971 52.7995 7.23087 53.7632 7.67738C54.7269 8.12389 55.5817 8.77503 56.2681 9.58549C56.9545 10.396 57.4561 11.3463 57.738 12.3703C58.0198 13.3943 58.0751 14.4674 57.9 15.515C57.708 16.669 57.558 17.833 57.427 19H55V12C55 11.7348 54.8946 11.4804 54.7071 11.2929C54.5196 11.1054 54.2652 11 54 11H38C37.7348 11 37.4804 11.1054 37.2929 11.2929C37.1054 11.4804 37 11.7348 37 12V19H34.573C34.442 17.833 34.292 16.669 34.1 15.515C33.9249 14.4674 33.9802 13.3943 34.2621 12.3703C34.5439 11.3463 35.0455 10.396 35.7319 9.58549C36.4184 8.77503 37.2732 8.12389 38.2368 7.67738C39.2005 7.23087 40.2499 6.99971 41.312 7V7ZM53 13V23H39V13H53ZM34 39.688C34.0001 39.2859 34.0335 38.8845 34.1 38.488C34.6979 34.8922 34.9989 31.2532 35 27.608V26.4C35 24.6 34.925 22.8 34.778 21.005H37V24.005C37 24.2702 37.1054 24.5246 37.2929 24.7121C37.4804 24.8996 37.7348 25.005 38 25.005H54C54.2652 25.005 54.5196 24.8996 54.7071 24.7121C54.8946 24.5246 55 24.2702 55 24.005V21H57.222C57.075 22.8 57 24.6 57 26.4V27.61C57.0011 31.2552 57.3021 34.8942 57.9 38.49C58.0743 39.5372 58.0184 40.6098 57.7362 41.6332C57.454 42.6566 56.9522 43.6062 56.2659 44.4161C55.5795 45.226 54.725 45.8767 53.7618 46.3229C52.7985 46.7691 51.7496 47.0002 50.688 47H41.312C39.3734 46.9979 37.5148 46.2268 36.144 44.856C34.7732 43.4852 34.0021 41.6266 34 39.688V39.688ZM44 49H48V51H44V49ZM12.887 8.124C13.2522 8.04131 13.6255 7.99972 14 8C14.4655 8.00131 14.9244 8.11032 15.3408 8.3185C15.7571 8.52668 16.1197 8.82839 16.4 9.2L17.321 10.428C17.7605 11.0163 17.9986 11.7307 18 12.465C17.9945 12.5595 17.9649 12.6511 17.9139 12.7309C17.8629 12.8107 17.7922 12.8761 17.7087 12.9207C17.6252 12.9654 17.5317 12.9878 17.437 12.986C17.3423 12.9841 17.2497 12.9579 17.168 12.91L15.776 11.982L15.455 10.7C15.2995 10.0787 14.9786 9.51121 14.5265 9.05765C14.0743 8.6041 13.5078 8.28146 12.887 8.124ZM17 22C13.691 22 11 19.757 11 17C11.0053 16.4785 11.107 15.9625 11.3 15.478C11.8847 15.8127 12.5453 15.9924 13.219 16C13.7526 15.9986 14.2745 15.8439 14.7225 15.5542C15.1705 15.2645 15.5258 14.852 15.746 14.366L16.059 14.574C16.4115 14.8096 16.8177 14.9527 17.24 14.9901C17.6624 15.0275 18.0874 14.9581 18.4758 14.7882C18.8643 14.6182 19.2037 14.3533 19.4629 14.0177C19.7221 13.6822 19.8927 13.2868 19.959 12.868L20 12.855C20.0008 15.3622 20.5921 17.8339 21.726 20.07C21.1113 20.6967 20.375 21.1911 19.5623 21.523C18.7496 21.8549 17.8777 22.0172 17 22V22ZM24 8.472C23.9995 8.74175 23.9659 9.01043 23.9 9.272L23.686 10.131C23.4166 10.0465 23.1363 10.0024 22.854 10C22.5636 10.004 22.2755 10.0529 22 10.145V8C21.9959 7.71641 21.9511 7.43487 21.867 7.164C22.0905 7.04821 22.3401 6.99214 22.5917 7.00121C22.8433 7.01028 23.0882 7.0842 23.3028 7.21579C23.5174 7.34738 23.6943 7.53218 23.8165 7.75227C23.9386 7.97237 24.0019 8.22029 24 8.472V8.472ZM17.828 7H19C19.2652 7 19.5196 7.10536 19.7071 7.2929C19.8946 7.48043 20 7.73479 20 8V10.146C19.9999 10.2622 19.975 10.377 19.9269 10.4827C19.8788 10.5884 19.8086 10.6827 19.721 10.759C19.5385 10.2089 19.2684 9.69193 18.921 9.228L18 8C17.729 7.64332 17.4111 7.32478 17.055 7.053C17.3112 7.01833 17.5695 7.00063 17.828 7V7Z" fill="black"/>
</svg>
