<?xml version="1.0" encoding="UTF-8" standalone="no"?> <svg width="512" height="512" viewBox="0 0 512 512" fill="none" xmlns="http://www.w3.org/2000/svg">
<path d="M400 72H112C98.7452 72 88 82.7452 88 96V464C88 477.255 98.7452 488 112 488H400C413.255 488 424 477.255 424 464V96C424 82.7452 413.255 72 400 72Z" fill="#7A4922"/>
<path d="M120 104H392V456H152C143.513 456 135.374 452.629 129.373 446.627C123.371 440.626 120 432.487 120 424V104Z" fill="#EAE9E4"/>
<path d="M288 168H272V152H240V168H224V200H240V216H272V200H288V168Z" fill="#02A437"/>
<path d="M192 312H160V344H192V312Z" fill="#EE9D0D"/>
<path d="M192 376H160V408H192V376Z" fill="#EE9D0D"/>
<path d="M288 272H240C237.878 272 235.843 271.157 234.343 269.657C232.843 268.157 232 266.122 232 264C232 261.878 232.843 259.843 234.343 258.343C235.843 256.843 237.878 256 240 256H288C290.122 256 292.157 256.843 293.657 258.343C295.157 259.843 296 261.878 296 264C296 266.122 295.157 268.157 293.657 269.657C292.157 271.157 290.122 272 288 272Z" fill="#CDCCC8"/>
<path d="M336 272H312C309.878 272 307.843 271.157 306.343 269.657C304.843 268.157 304 266.122 304 264C304 261.878 304.843 259.843 306.343 258.343C307.843 256.843 309.878 256 312 256H336C338.122 256 340.157 256.843 341.657 258.343C343.157 259.843 344 261.878 344 264C344 266.122 343.157 268.157 341.657 269.657C340.157 271.157 338.122 272 336 272Z" fill="#CDCCC8"/>
<path d="M336 304H240C237.878 304 235.843 303.157 234.343 301.657C232.843 300.157 232 298.122 232 296C232 293.878 232.843 291.843 234.343 290.343C235.843 288.843 237.878 288 240 288H336C338.122 288 340.157 288.843 341.657 290.343C343.157 291.843 344 293.878 344 296C344 298.122 343.157 300.157 341.657 301.657C340.157 303.157 338.122 304 336 304Z" fill="#CDCCC8"/>
<path d="M248 336H240C237.878 336 235.843 335.157 234.343 333.657C232.843 332.157 232 330.122 232 328C232 325.878 232.843 323.843 234.343 322.343C235.843 320.843 237.878 320 240 320H248C250.122 320 252.157 320.843 253.657 322.343C255.157 323.843 256 325.878 256 328C256 330.122 255.157 332.157 253.657 333.657C252.157 335.157 250.122 336 248 336Z" fill="#CDCCC8"/>
<path d="M336 336H280C277.878 336 275.843 335.157 274.343 333.657C272.843 332.157 272 330.122 272 328C272 325.878 272.843 323.843 274.343 322.343C275.843 320.843 277.878 320 280 320H336C338.122 320 340.157 320.843 341.657 322.343C343.157 323.843 344 325.878 344 328C344 330.122 343.157 332.157 341.657 333.657C340.157 335.157 338.122 336 336 336Z" fill="#CDCCC8"/>
<path d="M304 368H240C237.878 368 235.843 367.157 234.343 365.657C232.843 364.157 232 362.122 232 360C232 357.878 232.843 355.843 234.343 354.343C235.843 352.843 237.878 352 240 352H304C306.122 352 308.157 352.843 309.657 354.343C311.157 355.843 312 357.878 312 360C312 362.122 311.157 364.157 309.657 365.657C308.157 367.157 306.122 368 304 368Z" fill="#CDCCC8"/>
<path d="M288 72V56C288 47.5131 284.629 39.3737 278.627 33.3726C272.626 27.3714 264.487 24 256 24V24C247.513 24 239.374 27.3714 233.373 33.3726C227.371 39.3737 224 47.5131 224 56V72H200V90C200 97.9565 203.161 105.587 208.787 111.213C214.413 116.839 222.044 120 230 120H282C289.956 120 297.587 116.839 303.213 111.213C308.839 105.587 312 97.9565 312 90V72H288Z" fill="#CDCCC8"/>
<path d="M392 456C400.487 456 408.626 452.629 414.627 446.627C420.629 440.626 424 432.487 424 424V392H184V424C184 432.487 180.629 440.626 174.627 446.627C168.626 452.629 160.487 456 152 456H392Z" fill="#CDCCC8"/>
<path d="M196 248H164V280H196V248Z" fill="#EE9D0D"/>
<path d="M168 264C166.949 264 165.909 263.793 164.938 263.391C163.968 262.989 163.086 262.4 162.343 261.657L154.343 253.657C152.843 252.157 152 250.122 152 248C152 245.878 152.843 243.843 154.343 242.343C155.843 240.843 157.878 240 160 240C162.122 240 164.157 240.843 165.657 242.343L167.134 243.821L185.6 219.2C186.23 218.36 187.02 217.651 187.924 217.116C188.828 216.581 189.829 216.229 190.869 216.08C191.909 215.932 192.968 215.99 193.985 216.25C195.003 216.511 195.959 216.97 196.8 217.6C197.64 218.23 198.348 219.02 198.884 219.924C199.419 220.828 199.771 221.829 199.92 222.869C200.068 223.909 200.01 224.968 199.75 225.985C199.489 227.003 199.03 227.96 198.4 228.8L174.4 260.8C173.712 261.717 172.836 262.475 171.829 263.024C170.823 263.573 169.71 263.899 168.567 263.98C168.377 263.993 168.188 264 168 264Z" fill="#02A437"/>
</svg>
