<?xml version="1.0" encoding="UTF-8" standalone="no"?> <svg width="32" height="32" viewBox="0 0 32 32" fill="none" xmlns="http://www.w3.org/2000/svg">
<circle cx="16" cy="16" r="13" fill="#EB666B" stroke="#EB666B" stroke-width="2"/>
<path fill-rule="evenodd" clip-rule="evenodd" d="M15 7H17C18.1046 7 19 7.89543 19 9V13H20H23C24.1046 13 25 13.8954 25 15V17C25 18.1046 24.1046 19 23 19H20H19V23C19 24.1046 18.1046 25 17 25H15C13.8954 25 13 24.1046 13 23V19H12H9C7.89543 19 7 18.1046 7 17V15C7 13.8954 7.89543 13 9 13H12H13V9C13 7.89543 13.8954 7 15 7Z" fill="#F8C09D"/>
<circle cx="16" cy="16" r="13" stroke="black" stroke-width="2"/>
<path fill-rule="evenodd" clip-rule="evenodd" d="M15 6C13.3431 6 12 7.34315 12 9V12H9C7.34315 12 6 13.3431 6 15V17C6 18.6569 7.34315 20 9 20H12V23C12 24.6569 13.3431 26 15 26H17C18.6569 26 20 24.6569 20 23V20H23C24.6569 20 26 18.6569 26 17V15C26 13.3431 24.6569 12 23 12H20V9C20 7.34315 18.6569 6 17 6H15ZM20 18H23C23.5523 18 24 17.5523 24 17V15C24 14.4477 23.5523 14 23 14H20H18V9C18 8.44772 17.5523 8 17 8H15C14.4477 8 14 8.44772 14 9V14H12H9C8.44772 14 8 14.4477 8 15V17C8 17.5523 8.44772 18 9 18H12H14V23C14 23.5523 14.4477 24 15 24H17C17.5523 24 18 23.5523 18 23V18H20Z" fill="black"/>
</svg>
