<?xml version="1.0" encoding="UTF-8" standalone="no"?> <svg width="64" height="64" viewBox="0 0 64 64" fill="none" xmlns="http://www.w3.org/2000/svg">
<path d="M53 17H11C6.58172 17 3 20.5817 3 25V49C3 53.4183 6.58172 57 11 57H53C57.4183 57 61 53.4183 61 49V25C61 20.5817 57.4183 17 53 17Z" fill="#C5DDDC"/>
<path d="M34 50C27.6348 50 21.5303 47.4714 17.0294 42.9706C12.5286 38.4697 10 32.3652 10 26V17.069C8.06781 17.3124 6.29077 18.2523 5.00207 19.7124C3.71337 21.1725 3.00152 23.0525 3 25V49C3 51.1217 3.84285 53.1566 5.34315 54.6569C6.84344 56.1571 8.87827 57 11 57H53C54.9475 56.9985 56.8275 56.2866 58.2876 54.9979C59.7477 53.7092 60.6876 51.9322 60.931 50H34Z" fill="#88D3D1"/>
<path d="M14 13H22C22.2652 13 22.5196 13.1054 22.7071 13.2929C22.8946 13.4804 23 13.7348 23 14V17H13V14C13 13.7348 13.1054 13.4804 13.2929 13.2929C13.4804 13.1054 13.7348 13 14 13V13Z" fill="#FF6283"/>
<path d="M42 13H50C50.2652 13 50.5196 13.1054 50.7071 13.2929C50.8946 13.4804 51 13.7348 51 14V17H41V14C41 13.7348 41.1054 13.4804 41.2929 13.2929C41.4804 13.1054 41.7348 13 42 13Z" fill="#FF6283"/>
<path d="M44 3H20C18.9391 3 17.9217 3.42143 17.1716 4.17157C16.4214 4.92172 16 5.93913 16 7V13H20V8C20 7.73478 20.1054 7.48043 20.2929 7.29289C20.4804 7.10536 20.7348 7 21 7H43C43.2652 7 43.5196 7.10536 43.7071 7.29289C43.8946 7.48043 44 7.73478 44 8V13H48V7C48 5.93913 47.5786 4.92172 46.8284 4.17157C46.0783 3.42143 45.0609 3 44 3Z" fill="#88D3D1"/>
<path d="M21 23H15C13.8954 23 13 23.8954 13 25V29C13 30.1046 13.8954 31 15 31H21C22.1046 31 23 30.1046 23 29V25C23 23.8954 22.1046 23 21 23Z" fill="#EE1442"/>
<path d="M49 23H43C41.8954 23 41 23.8954 41 25V29C41 30.1046 41.8954 31 43 31H49C50.1046 31 51 30.1046 51 29V25C51 23.8954 50.1046 23 49 23Z" fill="#EE1442"/>
<path d="M46 28C46.5523 28 47 27.5523 47 27C47 26.4477 46.5523 26 46 26C45.4477 26 45 26.4477 45 27C45 27.5523 45.4477 28 46 28Z" fill="#C5DDDC"/>
<path d="M18 28C18.5523 28 19 27.5523 19 27C19 26.4477 18.5523 26 18 26C17.4477 26 17 26.4477 17 27C17 27.5523 17.4477 28 18 28Z" fill="#C5DDDC"/>
<path d="M40 38H36V34C36 33.4696 35.7893 32.9609 35.4142 32.5858C35.0391 32.2107 34.5304 32 34 32H30C29.4696 32 28.9609 32.2107 28.5858 32.5858C28.2107 32.9609 28 33.4696 28 34V38H24C23.4696 38 22.9609 38.2107 22.5858 38.5858C22.2107 38.9609 22 39.4696 22 40V44C22 44.5304 22.2107 45.0391 22.5858 45.4142C22.9609 45.7893 23.4696 46 24 46H28V50C28 50.5304 28.2107 51.0391 28.5858 51.4142C28.9609 51.7893 29.4696 52 30 52H34C34.5304 52 35.0391 51.7893 35.4142 51.4142C35.7893 51.0391 36 50.5304 36 50V46H40C40.5304 46 41.0391 45.7893 41.4142 45.4142C41.7893 45.0391 42 44.5304 42 44V40C42 39.4696 41.7893 38.9609 41.4142 38.5858C41.0391 38.2107 40.5304 38 40 38Z" fill="#EE1442"/>
<path d="M53 17H11C8.87827 17 6.84344 17.8429 5.34315 19.3431C3.84285 20.8434 3 22.8783 3 25V27H13V25C13 24.4696 13.2107 23.9609 13.5858 23.5858C13.9609 23.2107 14.4696 23 15 23H21C21.5304 23 22.0391 23.2107 22.4142 23.5858C22.7893 23.9609 23 24.4696 23 25V27H41V25C41 24.4696 41.2107 23.9609 41.5858 23.5858C41.9609 23.2107 42.4696 23 43 23H49C49.5304 23 50.0391 23.2107 50.4142 23.5858C50.7893 23.9609 51 24.4696 51 25V27H61V25C61 22.8783 60.1571 20.8434 58.6569 19.3431C57.1566 17.8429 55.1217 17 53 17V17Z" fill="#33B1A2"/>
<path d="M13 57H19V59C19 59.5304 18.7893 60.0391 18.4142 60.4142C18.0391 60.7893 17.5304 61 17 61H15C14.4696 61 13.9609 60.7893 13.5858 60.4142C13.2107 60.0391 13 59.5304 13 59V57Z" fill="#2E9989"/>
<path d="M45 57H51V59C51 59.5304 50.7893 60.0391 50.4142 60.4142C50.0391 60.7893 49.5304 61 49 61H47C46.4696 61 45.9609 60.7893 45.5858 60.4142C45.2107 60.0391 45 59.5304 45 59V57Z" fill="#2E9989"/>
<path d="M3 38H9C9.53043 38 10.0391 38.2107 10.4142 38.5858C10.7893 38.9609 11 39.4696 11 40V44C11 44.5304 10.7893 45.0391 10.4142 45.4142C10.0391 45.7893 9.53043 46 9 46H3V38Z" fill="#CE1743"/>
<path d="M55 38H61V46H55C54.4696 46 53.9609 45.7893 53.5858 45.4142C53.2107 45.0391 53 44.5304 53 44V40C53 39.4696 53.2107 38.9609 53.5858 38.5858C53.9609 38.2107 54.4696 38 55 38Z" fill="#EE1442"/>
<path d="M21 23H15C19.418 23 23 25.686 23 29V25C23 24.4696 22.7893 23.9609 22.4142 23.5858C22.0391 23.2107 21.5304 23 21 23Z" fill="#FF6283"/>
<path d="M49 23H43C47.418 23 51 25.686 51 29V25C51 24.4696 50.7893 23.9609 50.4142 23.5858C50.0391 23.2107 49.5304 23 49 23Z" fill="#FF6283"/>
<path d="M23 15H19C18.3007 14.9985 17.6142 14.8128 17.0094 14.4617C16.4047 14.1107 15.9031 13.6065 15.555 13H14C13.7348 13 13.4804 13.1054 13.2929 13.2929C13.1054 13.4804 13 13.7348 13 14V17H23V15Z" fill="#EE1442"/>
<path d="M43.555 13H42C41.7348 13 41.4804 13.1054 41.2929 13.2929C41.1054 13.4804 41 13.7348 41 14V17H51V15H47C46.3007 14.9985 45.6142 14.8128 45.0094 14.4617C44.4047 14.1107 43.9031 13.6065 43.555 13V13Z" fill="#EE1442"/>
<path d="M28 49.244V50C28 50.5304 28.2107 51.0391 28.5858 51.4142C28.9609 51.7893 29.4696 52 30 52H34C34.5304 52 35.0391 51.7893 35.4142 51.4142C35.7893 51.0391 36 50.5304 36 50H34C31.9762 50.0012 29.9603 49.7472 28 49.244Z" fill="#CE1743"/>
<path d="M10 17.069C8.06781 17.3124 6.29077 18.2523 5.00207 19.7124C3.71337 21.1725 3.00152 23.0525 3 25V27H10V17.069Z" fill="#2E9989"/>
<path d="M53 17H35C38.9506 16.9975 42.8497 17.897 46.3999 19.63C49.9501 21.363 53.0578 23.8837 55.486 27H61V25C61 22.8783 60.1571 20.8434 58.6569 19.3432C57.1566 17.8429 55.1217 17 53 17V17Z" fill="#88D3D1"/>
<path d="M53 16H52V14C52 13.4696 51.7893 12.9609 51.4142 12.5858C51.0391 12.2107 50.5304 12 50 12H49V7C48.9984 5.6744 48.4711 4.40356 47.5338 3.46622C46.5964 2.52888 45.3256 2.00159 44 2H20C18.6744 2.00159 17.4036 2.52888 16.4662 3.46622C15.5289 4.40356 15.0016 5.6744 15 7V12H14C13.4696 12 12.9609 12.2107 12.5858 12.5858C12.2107 12.9609 12 13.4696 12 14V16H11C8.61386 16.0026 6.32622 16.9517 4.63896 18.639C2.95171 20.3262 2.00265 22.6139 2 25V49C2.00265 51.3861 2.95171 53.6738 4.63896 55.361C6.32622 57.0483 8.61386 57.9974 11 58H12V59C12 59.7956 12.3161 60.5587 12.8787 61.1213C13.4413 61.6839 14.2044 62 15 62H17C17.7956 62 18.5587 61.6839 19.1213 61.1213C19.6839 60.5587 20 59.7956 20 59V58H44V59C44 59.7956 44.3161 60.5587 44.8787 61.1213C45.4413 61.6839 46.2044 62 47 62H49C49.7956 62 50.5587 61.6839 51.1213 61.1213C51.6839 60.5587 52 59.7956 52 59V58H53C55.3861 57.9974 57.6738 57.0483 59.361 55.361C61.0483 53.6738 61.9974 51.3861 62 49V25C61.9974 22.6139 61.0483 20.3262 59.361 18.639C57.6738 16.9517 55.3861 16.0026 53 16ZM50 14V16H42V14H50ZM22 12H21V8H43V12H42C41.4696 12 40.9609 12.2107 40.5858 12.5858C40.2107 12.9609 40 13.4696 40 14V16H24V14C24 13.4696 23.7893 12.9609 23.4142 12.5858C23.0391 12.2107 22.5304 12 22 12ZM17 7C17 6.20435 17.3161 5.44129 17.8787 4.87868C18.4413 4.31607 19.2044 4 20 4H44C44.7956 4 45.5587 4.31607 46.1213 4.87868C46.6839 5.44129 47 6.20435 47 7V12H45V8C45 7.46957 44.7893 6.96086 44.4142 6.58579C44.0391 6.21071 43.5304 6 43 6H21C20.4696 6 19.9609 6.21071 19.5858 6.58579C19.2107 6.96086 19 7.46957 19 8V12H17V7ZM14 14H22V16H14V14ZM11 18H53C54.8559 18.0021 56.6351 18.7403 57.9474 20.0526C59.2597 21.3649 59.9979 23.1441 60 25V26H52V25C52 24.7348 51.8946 24.4804 51.7071 24.2929C51.5196 24.1054 51.2652 24 51 24C50.7348 24 50.4804 24.1054 50.2929 24.2929C50.1054 24.4804 50 24.7348 50 25V29C50 29.2652 49.8946 29.5196 49.7071 29.7071C49.5196 29.8946 49.2652 30 49 30H43C42.7348 30 42.4804 29.8946 42.2929 29.7071C42.1054 29.5196 42 29.2652 42 29V25C42 24.7348 42.1054 24.4804 42.2929 24.2929C42.4804 24.1054 42.7348 24 43 24H47C47.2652 24 47.5196 23.8946 47.7071 23.7071C47.8946 23.5196 48 23.2652 48 23C48 22.7348 47.8946 22.4804 47.7071 22.2929C47.5196 22.1054 47.2652 22 47 22H43C42.2044 22 41.4413 22.3161 40.8787 22.8787C40.3161 23.4413 40 24.2044 40 25V26H24V25C24 24.2044 23.6839 23.4413 23.1213 22.8787C22.5587 22.3161 21.7956 22 21 22H15C14.2044 22 13.4413 22.3161 12.8787 22.8787C12.3161 23.4413 12 24.2044 12 25V26H4V25C4.00212 23.1441 4.7403 21.3649 6.05259 20.0526C7.36489 18.7403 9.14413 18.0021 11 18V18ZM14 25C14 24.7348 14.1054 24.4804 14.2929 24.2929C14.4804 24.1054 14.7348 24 15 24H21C21.2652 24 21.5196 24.1054 21.7071 24.2929C21.8946 24.4804 22 24.7348 22 25V29C22 29.2652 21.8946 29.5196 21.7071 29.7071C21.5196 29.8946 21.2652 30 21 30H15C14.7348 30 14.4804 29.8946 14.2929 29.7071C14.1054 29.5196 14 29.2652 14 29V25ZM4 39H9C9.26522 39 9.51957 39.1054 9.70711 39.2929C9.89464 39.4804 10 39.7348 10 40V44C10 44.2652 9.89464 44.5196 9.70711 44.7071C9.51957 44.8946 9.26522 45 9 45H4V39ZM18 59C18 59.2652 17.8946 59.5196 17.7071 59.7071C17.5196 59.8946 17.2652 60 17 60H15C14.7348 60 14.4804 59.8946 14.2929 59.7071C14.1054 59.5196 14 59.2652 14 59V58H18V59ZM50 59C50 59.2652 49.8946 59.5196 49.7071 59.7071C49.5196 59.8946 49.2652 60 49 60H47C46.7348 60 46.4804 59.8946 46.2929 59.7071C46.1054 59.5196 46 59.2652 46 59V58H50V59ZM53 56H11C9.14413 55.9979 7.36489 55.2597 6.05259 53.9474C4.7403 52.6351 4.00212 50.8559 4 49V47H9C9.79565 47 10.5587 46.6839 11.1213 46.1213C11.6839 45.5587 12 44.7956 12 44V40C12 39.2044 11.6839 38.4413 11.1213 37.8787C10.5587 37.3161 9.79565 37 9 37H4V28H12V29C12 29.7956 12.3161 30.5587 12.8787 31.1213C13.4413 31.6839 14.2044 32 15 32H21C21.7956 32 22.5587 31.6839 23.1213 31.1213C23.6839 30.5587 24 29.7956 24 29V28H40V29C40 29.7956 40.3161 30.5587 40.8787 31.1213C41.4413 31.6839 42.2044 32 43 32H49C49.7956 32 50.5587 31.6839 51.1213 31.1213C51.6839 30.5587 52 29.7956 52 29V28H60V37H55C54.2044 37 53.4413 37.3161 52.8787 37.8787C52.3161 38.4413 52 39.2044 52 40V44C52 44.7956 52.3161 45.5587 52.8787 46.1213C53.4413 46.6839 54.2044 47 55 47H60V49C59.9979 50.8559 59.2597 52.6351 57.9474 53.9474C56.6351 55.2597 54.8559 55.9979 53 56V56ZM60 45H55C54.7348 45 54.4804 44.8946 54.2929 44.7071C54.1054 44.5196 54 44.2652 54 44V40C54 39.7348 54.1054 39.4804 54.2929 39.2929C54.4804 39.1054 54.7348 39 55 39H60V45Z" fill="black"/>
<path d="M46 28C46.5523 28 47 27.5523 47 27C47 26.4477 46.5523 26 46 26C45.4477 26 45 26.4477 45 27C45 27.5523 45.4477 28 46 28Z" fill="black"/>
<path d="M18 28C18.5523 28 19 27.5523 19 27C19 26.4477 18.5523 26 18 26C17.4477 26 17 26.4477 17 27C17 27.5523 17.4477 28 18 28Z" fill="black"/>
<path d="M40 37H37V36C37 35.7348 36.8946 35.4804 36.7071 35.2929C36.5196 35.1054 36.2652 35 36 35C35.7348 35 35.4804 35.1054 35.2929 35.2929C35.1054 35.4804 35 35.7348 35 36V38C35 38.2652 35.1054 38.5196 35.2929 38.7071C35.4804 38.8946 35.7348 39 36 39H40C40.2652 39 40.5196 39.1054 40.7071 39.2929C40.8946 39.4804 41 39.7348 41 40V44C41 44.2652 40.8946 44.5196 40.7071 44.7071C40.5196 44.8946 40.2652 45 40 45H36C35.7348 45 35.4804 45.1054 35.2929 45.2929C35.1054 45.4804 35 45.7348 35 46V50C35 50.2652 34.8946 50.5196 34.7071 50.7071C34.5196 50.8946 34.2652 51 34 51H30C29.7348 51 29.4804 50.8946 29.2929 50.7071C29.1054 50.5196 29 50.2652 29 50V46C29 45.7348 28.8946 45.4804 28.7071 45.2929C28.5196 45.1054 28.2652 45 28 45H24C23.7348 45 23.4804 44.8946 23.2929 44.7071C23.1054 44.5196 23 44.2652 23 44V40C23 39.7348 23.1054 39.4804 23.2929 39.2929C23.4804 39.1054 23.7348 39 24 39H28C28.2652 39 28.5196 38.8946 28.7071 38.7071C28.8946 38.5196 29 38.2652 29 38V34C29 33.7348 29.1054 33.4804 29.2929 33.2929C29.4804 33.1054 29.7348 33 30 33H34C34.2652 33 34.5196 32.8946 34.7071 32.7071C34.8946 32.5196 35 32.2652 35 32C35 31.7348 34.8946 31.4804 34.7071 31.2929C34.5196 31.1054 34.2652 31 34 31H30C29.2044 31 28.4413 31.3161 27.8787 31.8787C27.3161 32.4413 27 33.2044 27 34V37H24C23.2044 37 22.4413 37.3161 21.8787 37.8787C21.3161 38.4413 21 39.2044 21 40V44C21 44.7956 21.3161 45.5587 21.8787 46.1213C22.4413 46.6839 23.2044 47 24 47H27V50C27 50.7956 27.3161 51.5587 27.8787 52.1213C28.4413 52.6839 29.2044 53 30 53H34C34.7956 53 35.5587 52.6839 36.1213 52.1213C36.6839 51.5587 37 50.7956 37 50V47H40C40.7956 47 41.5587 46.6839 42.1213 46.1213C42.6839 45.5587 43 44.7956 43 44V40C43 39.2044 42.6839 38.4413 42.1213 37.8787C41.5587 37.3161 40.7956 37 40 37Z" fill="black"/>
</svg>
