<svg width="68" height="50" viewBox="0 0 68 50" fill="none" xmlns="http://www.w3.org/2000/svg">
<path fill-rule="evenodd" clip-rule="evenodd" d="M33.2361 7.22934V14.5183L32.7487 14.5795C32.4807 14.6131 31.7808 14.7249 31.1936 14.828C30.6064 14.9309 29.7709 15.132 29.3369 15.2748C28.9029 15.4176 28.2553 15.6706 27.8979 15.8369C27.5405 16.0034 26.9094 16.3622 26.4956 16.6343C26.0559 16.9235 25.4042 17.4853 24.9277 17.986C24.4792 18.4573 23.9636 19.0749 23.7819 19.3585C23.6002 19.642 23.2968 20.1873 23.1076 20.5703C22.9185 20.9532 22.6369 21.6635 22.4819 22.1485C22.3268 22.6336 22.1526 23.2708 22.0947 23.5643C22.0367 23.858 21.9524 24.0981 21.9074 24.0981C21.8623 24.0981 19.4391 23.3461 16.5226 22.427C13.6061 21.5079 11.1812 20.756 11.1338 20.756C11.0824 20.756 11.0477 22.2363 11.0477 24.433C11.0477 27.3353 11.0233 28.1011 10.9317 28.0677C10.8679 28.0444 9.58601 27.6389 8.08315 27.1664C6.58028 26.694 5.29568 26.2862 5.22837 26.2604C5.12848 26.2222 5.1061 26.878 5.1061 29.8384V33.4633L4.20093 33.1373C3.70313 32.9581 3.0242 32.7137 2.69231 32.5944C2.36041 32.4751 1.75464 32.2529 1.34615 32.1006C0.937666 31.9483 0.485822 31.7775 0.342109 31.7209C0.198395 31.6644 0.062573 31.618 0.0403846 31.618C0.0181963 31.618 0 35.754 0 40.809V50H33.8859H67.7719V40.7626C67.7719 31.7874 67.767 31.5252 67.5975 31.5252C67.5016 31.5252 67.2615 31.5933 67.0637 31.6767C66.866 31.7601 66.37 31.9534 65.9615 32.1064C65.5531 32.2593 64.9682 32.4787 64.6618 32.5941C64.3554 32.7094 63.7288 32.9466 63.2692 33.1212L62.4337 33.4385L62.4801 29.9055C62.5056 27.9625 62.5146 26.3428 62.4999 26.3063C62.4852 26.2698 62.1928 26.3392 61.85 26.4605C61.5073 26.5818 60.4122 26.9383 59.4165 27.2529C58.4208 27.5673 57.3659 27.9025 57.0723 27.9977L56.5385 28.1709V24.3606C56.5385 20.7697 56.5291 20.554 56.376 20.6136C56.2867 20.6484 55.1691 21.0302 53.8926 21.4622C52.6161 21.8941 50.5063 22.6061 49.2043 23.0446C47.9022 23.4831 46.7684 23.8776 46.6846 23.9214C46.5571 23.9879 46.5218 23.9296 46.4672 23.5621C46.4314 23.3208 46.2753 22.7265 46.1204 22.2416C45.9654 21.7566 45.6966 21.0565 45.5231 20.6859C45.3496 20.3153 44.9919 19.6941 44.7283 19.3056C44.4647 18.9171 43.9521 18.3011 43.5892 17.9368C43.2263 17.5725 42.6202 17.068 42.2422 16.8154C41.8643 16.5629 41.2186 16.1913 40.8073 15.9896C40.3961 15.788 39.6358 15.484 39.1177 15.3142C38.5995 15.1444 37.5299 14.893 36.7408 14.7557L35.306 14.5061L35.3502 11.3877C35.3745 9.67247 35.4015 8.2604 35.4102 8.24963C35.4189 8.23895 35.6539 8.30942 35.9325 8.40643C36.2111 8.50336 37.2328 8.83265 38.2029 9.13818C39.1731 9.44372 40.7188 9.92963 41.6379 10.2181C42.557 10.5065 43.6579 10.8649 44.0844 11.0145C44.5108 11.1641 44.8973 11.2865 44.9432 11.2865C44.9911 11.2865 45.0259 9.67906 45.025 7.5033L45.0237 3.72015L43.9806 3.3993C43.4071 3.22281 42.2692 2.86316 41.4523 2.60015C40.6353 2.33713 39.1731 1.86858 38.2029 1.55896C37.2328 1.24935 35.7915 0.787665 35 0.532917C34.2086 0.278261 33.4879 0.0407812 33.3985 0.00513136C33.2446 -0.0562347 33.2361 0.324681 33.2361 7.22934ZM36.5771 17.4302C37.0616 17.5341 37.73 17.702 38.0626 17.8031C38.3951 17.9044 39.0556 18.1787 39.5306 18.4127C40.0055 18.6467 40.6728 19.0723 41.0135 19.3585C41.3543 19.6447 41.843 20.1393 42.0997 20.4577C42.3563 20.776 42.6966 21.2971 42.8557 21.6157C43.0148 21.9343 43.2322 22.4151 43.3386 22.6841C43.4452 22.9532 43.6029 23.5287 43.6891 23.963C43.7754 24.3973 43.8237 24.7749 43.7964 24.8021C43.7692 24.8293 42.2976 25.3078 40.526 25.8654C38.7545 26.4229 37.0684 26.9605 36.7793 27.06C36.49 27.1597 35.7831 27.3911 35.2083 27.5744C34.525 27.7924 34.0752 27.8883 33.9086 27.8516C33.7685 27.8207 33.2779 27.6777 32.8183 27.5339C32.3588 27.39 31.6485 27.1692 31.2401 27.0431C30.8316 26.917 29.6409 26.5538 28.5942 26.236C27.5474 25.9182 26.3359 25.5408 25.9019 25.3973C25.4678 25.2538 25.0024 25.1119 24.8674 25.0821L24.6221 25.028L24.8742 24.1685C25.013 23.6958 25.2356 23.0372 25.3689 22.7049C25.5021 22.3726 25.7264 21.8922 25.8672 21.6373C26.008 21.3823 26.288 20.944 26.4893 20.6631C26.6907 20.3823 27.0482 19.9503 27.2838 19.7032C27.5195 19.4561 27.972 19.067 28.2895 18.8385C28.6069 18.6099 29.15 18.286 29.4964 18.1184C29.8427 17.9509 30.4184 17.727 30.7759 17.6207C31.1333 17.5144 31.6764 17.3825 31.9828 17.3274C32.2891 17.2724 32.7278 17.2114 32.9576 17.1919C33.1873 17.1724 33.8976 17.1756 34.5358 17.199C35.1857 17.2226 36.0838 17.3245 36.5771 17.4302ZM15.8753 26.2873C16.1562 26.3606 16.6993 26.5222 17.0822 26.6465C17.4652 26.7707 18.1754 26.9987 18.6605 27.1532C19.1456 27.3076 20.6913 27.7924 22.0955 28.2306C23.4997 28.6687 25.0663 29.1544 25.5769 29.3098C26.0875 29.4653 26.7978 29.6863 27.1552 29.8009C27.5126 29.9155 28.2228 30.1417 28.7334 30.3036C29.244 30.4655 30.6532 30.9077 31.865 31.2863L34.0681 31.9746L35.5321 31.5156C36.3372 31.2632 37.2885 30.9588 37.6459 30.8392C38.0033 30.7195 38.6926 30.4956 39.1777 30.3414C39.6628 30.1873 40.3939 29.9561 40.8024 29.8276C41.2109 29.6992 41.942 29.4669 42.4271 29.3113C42.9121 29.1557 44.5206 28.6478 46.0013 28.1825C47.4821 27.7172 49.4247 27.1067 50.3183 26.8259C51.2119 26.5451 52.0997 26.2585 52.2911 26.1889L52.6393 26.0627V31.3317C52.6393 34.2297 52.667 38.9889 52.7009 41.9078L52.7626 47.2149H51.5404H50.3183V38.2542V29.2935L50.063 29.3541C49.9225 29.3874 49.4526 29.5321 49.0186 29.6757C48.5846 29.8193 47.4148 30.1924 46.4191 30.505C45.4234 30.8176 43.8777 31.3028 42.9841 31.5834C42.0905 31.864 41.0043 32.2094 40.5703 32.351C40.1363 32.4927 39.3425 32.7473 38.8064 32.917C38.2702 33.0867 37.5391 33.3209 37.1817 33.4374C36.8243 33.5539 35.9808 33.823 35.3074 34.0354L34.083 34.4215L33.4506 34.263C33.1029 34.1758 32.6094 34.0311 32.3541 33.9414C32.0988 33.8517 31.4513 33.6438 30.9151 33.4793C30.379 33.3149 29.5643 33.0588 29.1048 32.9102C28.6452 32.7614 25.8745 31.8877 22.9475 30.9684C20.0205 30.0492 17.587 29.2971 17.5396 29.2971C17.4874 29.2971 17.4536 32.8168 17.4536 38.256V47.2149H16.2699H15.0862V36.6303C15.0862 27.2596 15.1022 26.0519 15.2255 26.0997C15.3021 26.1295 15.5945 26.2138 15.8753 26.2873ZM9.40182 31.345C10.0262 31.5523 10.652 31.7662 10.7924 31.8204L11.0477 31.9191V39.5669V47.2149H9.63196H8.21618V39.0915C8.21618 34.6237 8.22751 30.9682 8.24134 30.9682C8.25517 30.9682 8.77739 31.1378 9.40182 31.345ZM59.4629 39.0451V47.122H58.0471H56.6313V39.4646V31.8072L56.8866 31.7524C57.0271 31.7221 57.497 31.579 57.931 31.4344C58.3651 31.2898 58.8664 31.13 59.0451 31.0793C59.2238 31.0286 59.3909 30.9828 59.4165 30.9776C59.442 30.9724 59.4629 34.6028 59.4629 39.0451ZM65.1411 47.0914C65.1231 47.1094 64.517 47.1511 63.7942 47.1839L62.4801 47.2437V42.1865V37.1293L63.2924 36.8189C63.7393 36.6482 64.3346 36.4187 64.6154 36.3089L65.126 36.1092L65.15 41.5839C65.1631 44.595 65.1592 47.0734 65.1411 47.0914ZM3.43501 36.4988C3.92009 36.6798 4.49458 36.892 4.71154 36.9703L5.1061 37.1129L5.10629 39.3091C5.10638 40.517 5.13395 42.7899 5.16765 44.3601L5.22893 47.2149H3.84452H2.46021L2.48491 41.691C2.49846 38.6528 2.51935 36.1677 2.53133 36.1684C2.54321 36.1691 2.94993 36.3178 3.43501 36.4988ZM25.6698 37.2838C26.2314 37.4482 27.067 37.6976 27.5265 37.8382C27.9861 37.9787 28.8216 38.2292 29.3833 38.3949C29.945 38.5607 30.8014 38.8139 31.2865 38.9578C31.7716 39.1017 32.5995 39.3463 33.1263 39.5013L34.0841 39.7832L34.983 39.5064C35.4775 39.3542 36.3206 39.0988 36.8568 38.9388C37.3929 38.7787 38.2076 38.5341 38.6671 38.3952C39.1267 38.2563 39.9622 38.0057 40.5239 37.8382C41.0856 37.6707 41.8584 37.4382 42.2414 37.3214C42.6243 37.2047 43.1824 37.0409 43.4814 36.9575C43.7806 36.8742 44.0361 36.8189 44.0495 36.8347C44.0628 36.8505 44.0526 39.1648 44.0268 41.9776L43.9798 47.0917L36.8751 47.1533C32.9675 47.1872 28.4455 47.2149 26.8263 47.2149H23.8822L23.8655 41.9733L23.8489 36.7318L24.2488 36.8584C24.4686 36.9279 25.1081 37.1193 25.6698 37.2838Z" fill="#113B7E"/>
</svg>
