<?xml version="1.0" encoding="UTF-8" standalone="no"?> <svg width="64" height="64" viewBox="0 0 64 64" fill="none" xmlns="http://www.w3.org/2000/svg">
<path d="M60 16.13H45.61C45.0577 16.13 44.61 16.5777 44.61 17.13V60C44.61 60.5523 45.0577 61 45.61 61H60C60.5523 61 61 60.5523 61 60V17.13C61 16.5777 60.5523 16.13 60 16.13Z" fill="#8E8684"/>
<path d="M18.39 16.13H4C3.44772 16.13 3 16.5777 3 17.13V60C3 60.5523 3.44772 61 4 61H18.39C18.9423 61 19.39 60.5523 19.39 60V17.13C19.39 16.5777 18.9423 16.13 18.39 16.13Z" fill="#8E8684"/>
<path d="M46.61 4V61H17.39V4C17.39 3.73478 17.4954 3.48043 17.6829 3.29289C17.8704 3.10536 18.1248 3 18.39 3H45.61C45.8752 3 46.1296 3.10536 46.3171 3.29289C46.5047 3.48043 46.61 3.73478 46.61 4Z" fill="#B6B2AC"/>
<path d="M41 41V61H23V41C23 40.7348 23.1054 40.4804 23.2929 40.2929C23.4804 40.1054 23.7348 40 24 40H40C40.2652 40 40.5196 40.1054 40.7071 40.2929C40.8946 40.4804 41 40.7348 41 41Z" fill="#474342"/>
<path d="M26.8 16.17H31V20.3C31 20.5652 31.1054 20.8196 31.2929 21.0071C31.4805 21.1946 31.7348 21.3 32 21.3C32.2653 21.3 32.5196 21.1946 32.7072 21.0071C32.8947 20.8196 33 20.5652 33 20.3V16.17H37.2001C37.4653 16.17 37.7196 16.0646 37.9072 15.8771C38.0947 15.6896 38.2001 15.4352 38.2001 15.17C38.2001 14.9048 38.0947 14.6504 37.9072 14.4629C37.7196 14.2753 37.4653 14.17 37.2001 14.17H33V10.05C33 9.78477 32.8947 9.53042 32.7072 9.34288C32.5196 9.15534 32.2653 9.04999 32 9.04999C31.7348 9.04999 31.4805 9.15534 31.2929 9.34288C31.1054 9.53042 31 9.78477 31 10.05V14.17H26.8C26.5348 14.17 26.2805 14.2753 26.0929 14.4629C25.9054 14.6504 25.8 14.9048 25.8 15.17C25.8 15.4352 25.9054 15.6896 26.0929 15.8771C26.2805 16.0646 26.5348 16.17 26.8 16.17Z" fill="#EE283B"/>
<path d="M40 25.18H24C23.7348 25.18 23.4804 25.2853 23.2929 25.4729C23.1054 25.6604 23 25.9148 23 26.18C23 26.4452 23.1054 26.6996 23.2929 26.8871C23.4804 27.0746 23.7348 27.18 24 27.18H40C40.2652 27.18 40.5196 27.0746 40.7071 26.8871C40.8946 26.6996 41 26.4452 41 26.18C41 25.9148 40.8946 25.6604 40.7071 25.4729C40.5196 25.2853 40.2652 25.18 40 25.18Z" fill="white"/>
<path d="M40 30.25H24C23.7348 30.25 23.4804 30.3554 23.2929 30.5429C23.1054 30.7304 23 30.9848 23 31.25C23 31.5152 23.1054 31.7696 23.2929 31.9571C23.4804 32.1446 23.7348 32.25 24 32.25H40C40.2652 32.25 40.5196 32.1446 40.7071 31.9571C40.8946 31.7696 41 31.5152 41 31.25C41 30.9848 40.8946 30.7304 40.7071 30.5429C40.5196 30.3554 40.2652 30.25 40 30.25Z" fill="white"/>
<path d="M40 35.32H24C23.7348 35.32 23.4804 35.4254 23.2929 35.6129C23.1054 35.8004 23 36.0548 23 36.32C23 36.5852 23.1054 36.8396 23.2929 37.0271C23.4804 37.2147 23.7348 37.32 24 37.32H40C40.2652 37.32 40.5196 37.2147 40.7071 37.0271C40.8946 36.8396 41 36.5852 41 36.32C41 36.0548 40.8946 35.8004 40.7071 35.6129C40.5196 35.4254 40.2652 35.32 40 35.32Z" fill="white"/>
<path d="M49.6801 23.06H55.5701C55.8353 23.06 56.0896 22.9546 56.2772 22.7671C56.4647 22.5796 56.5701 22.3252 56.5701 22.06C56.5701 21.7948 56.4647 21.5404 56.2772 21.3529C56.0896 21.1654 55.8353 21.06 55.5701 21.06H49.6801C49.4148 21.06 49.1605 21.1654 48.9729 21.3529C48.7854 21.5404 48.6801 21.7948 48.6801 22.06C48.6801 22.3252 48.7854 22.5796 48.9729 22.7671C49.1605 22.9546 49.4148 23.06 49.6801 23.06Z" fill="white"/>
<path d="M55.5701 27.69H49.6801C49.4148 27.69 49.1605 27.7954 48.9729 27.9829C48.7854 28.1704 48.6801 28.4248 48.6801 28.69C48.6801 28.9552 48.7854 29.2096 48.9729 29.3971C49.1605 29.5846 49.4148 29.69 49.6801 29.69H55.5701C55.8353 29.69 56.0896 29.5846 56.2772 29.3971C56.4647 29.2096 56.5701 28.9552 56.5701 28.69C56.5701 28.4248 56.4647 28.1704 56.2772 27.9829C56.0896 27.7954 55.8353 27.69 55.5701 27.69Z" fill="white"/>
<path d="M55.5701 34.31H49.6801C49.4148 34.31 49.1605 34.4154 48.9729 34.6029C48.7854 34.7904 48.6801 35.0448 48.6801 35.31C48.6801 35.5752 48.7854 35.8296 48.9729 36.0171C49.1605 36.2046 49.4148 36.31 49.6801 36.31H55.5701C55.8353 36.31 56.0896 36.2046 56.2772 36.0171C56.4647 35.8296 56.5701 35.5752 56.5701 35.31C56.5701 35.0448 56.4647 34.7904 56.2772 34.6029C56.0896 34.4154 55.8353 34.31 55.5701 34.31Z" fill="white"/>
<path d="M55.5701 40.94H49.6801C49.4148 40.94 49.1605 41.0454 48.9729 41.2329C48.7854 41.4204 48.6801 41.6748 48.6801 41.94C48.6801 42.2052 48.7854 42.4596 48.9729 42.6471C49.1605 42.8346 49.4148 42.94 49.6801 42.94H55.5701C55.8353 42.94 56.0896 42.8346 56.2772 42.6471C56.4647 42.4596 56.5701 42.2052 56.5701 41.94C56.5701 41.6748 56.4647 41.4204 56.2772 41.2329C56.0896 41.0454 55.8353 40.94 55.5701 40.94Z" fill="white"/>
<path d="M55.5701 47.57H49.6801C49.4148 47.57 49.1605 47.6754 48.9729 47.8629C48.7854 48.0504 48.6801 48.3048 48.6801 48.57C48.6801 48.8352 48.7854 49.0896 48.9729 49.2771C49.1605 49.4647 49.4148 49.57 49.6801 49.57H55.5701C55.8353 49.57 56.0896 49.4647 56.2772 49.2771C56.4647 49.0896 56.5701 48.8352 56.5701 48.57C56.5701 48.3048 56.4647 48.0504 56.2772 47.8629C56.0896 47.6754 55.8353 47.57 55.5701 47.57Z" fill="white"/>
<path d="M55.5701 54.2H49.6801C49.4148 54.2 49.1605 54.3054 48.9729 54.4929C48.7854 54.6804 48.6801 54.9348 48.6801 55.2C48.6801 55.4652 48.7854 55.7196 48.9729 55.9071C49.1605 56.0947 49.4148 56.2 49.6801 56.2H55.5701C55.8353 56.2 56.0896 56.0947 56.2772 55.9071C56.4647 55.7196 56.5701 55.4652 56.5701 55.2C56.5701 54.9348 56.4647 54.6804 56.2772 54.4929C56.0896 54.3054 55.8353 54.2 55.5701 54.2Z" fill="white"/>
<path d="M14.14 21.06H8.25C7.98478 21.06 7.73043 21.1654 7.54289 21.3529C7.35536 21.5404 7.25 21.7948 7.25 22.06C7.25 22.3252 7.35536 22.5796 7.54289 22.7671C7.73043 22.9546 7.98478 23.06 8.25 23.06H14.14C14.4052 23.06 14.6596 22.9546 14.8471 22.7671C15.0346 22.5796 15.14 22.3252 15.14 22.06C15.14 21.7948 15.0346 21.5404 14.8471 21.3529C14.6596 21.1654 14.4052 21.06 14.14 21.06Z" fill="white"/>
<path d="M14.14 27.69H8.25C7.98478 27.69 7.73043 27.7954 7.54289 27.9829C7.35536 28.1704 7.25 28.4248 7.25 28.69C7.25 28.9552 7.35536 29.2096 7.54289 29.3971C7.73043 29.5846 7.98478 29.69 8.25 29.69H14.14C14.4052 29.69 14.6596 29.5846 14.8471 29.3971C15.0346 29.2096 15.14 28.9552 15.14 28.69C15.14 28.4248 15.0346 28.1704 14.8471 27.9829C14.6596 27.7954 14.4052 27.69 14.14 27.69Z" fill="white"/>
<path d="M14.14 34.31H8.25C7.98478 34.31 7.73043 34.4154 7.54289 34.6029C7.35536 34.7904 7.25 35.0448 7.25 35.31C7.25 35.5752 7.35536 35.8296 7.54289 36.0171C7.73043 36.2046 7.98478 36.31 8.25 36.31H14.14C14.4052 36.31 14.6596 36.2046 14.8471 36.0171C15.0346 35.8296 15.14 35.5752 15.14 35.31C15.14 35.0448 15.0346 34.7904 14.8471 34.6029C14.6596 34.4154 14.4052 34.31 14.14 34.31Z" fill="white"/>
<path d="M14.14 40.94H8.25C7.98478 40.94 7.73043 41.0454 7.54289 41.2329C7.35536 41.4204 7.25 41.6748 7.25 41.94C7.25 42.2052 7.35536 42.4596 7.54289 42.6471C7.73043 42.8346 7.98478 42.94 8.25 42.94H14.14C14.4052 42.94 14.6596 42.8346 14.8471 42.6471C15.0346 42.4596 15.14 42.2052 15.14 41.94C15.14 41.6748 15.0346 41.4204 14.8471 41.2329C14.6596 41.0454 14.4052 40.94 14.14 40.94Z" fill="white"/>
<path d="M14.14 47.57H8.25C7.98478 47.57 7.73043 47.6754 7.54289 47.8629C7.35536 48.0504 7.25 48.3048 7.25 48.57C7.25 48.8352 7.35536 49.0896 7.54289 49.2771C7.73043 49.4647 7.98478 49.57 8.25 49.57H14.14C14.4052 49.57 14.6596 49.4647 14.8471 49.2771C15.0346 49.0896 15.14 48.8352 15.14 48.57C15.14 48.3048 15.0346 48.0504 14.8471 47.8629C14.6596 47.6754 14.4052 47.57 14.14 47.57Z" fill="white"/>
<path d="M14.14 54.2H8.25C7.98478 54.2 7.73043 54.3054 7.54289 54.4929C7.35536 54.6804 7.25 54.9348 7.25 55.2C7.25 55.4652 7.35536 55.7196 7.54289 55.9071C7.73043 56.0947 7.98478 56.2 8.25 56.2H14.14C14.4052 56.2 14.6596 56.0947 14.8471 55.9071C15.0346 55.7196 15.14 55.4652 15.14 55.2C15.14 54.9348 15.0346 54.6804 14.8471 54.4929C14.6596 54.3054 14.4052 54.2 14.14 54.2Z" fill="white"/>
</svg>
